# xmcd
#
# Track frame offsets:
# 150
# 11337
# 23205
# 35940
# 48463
# 58628
# 69003
# 79872
# 92538
# 103824
# 115884
# 128297
# 138130
# 148088
# 159511
# 167851
# 175542
# 185759
# 197839
# 207573
# 216924
# 228830
# 237680
# 247834
# 258016
#
# Disc length: 3589 seconds
#
#
# Revision: 0
# Processed by: cddbd v1.4PL0 Copyright (c) Steve Scherf et al.
# Submitted via: FreeRIP 2.10 
#
DISCID=580e0319
DTITLE=Johnny Cash - The Essential Sun Singles
DYEAR=1900
DGENRE=Rock and Roll
TTITLE0=Cry! Cry! Cry!
TTITLE1=So Doggone Lonesome
TTITLE2=Folsom Prison Blues
TTITLE3=I Walk The Line
TTITLE4=Get Rhythm
TTITLE5=There You Go
TTITLE6=Train Of Love
TTITLE7=Next In Line
TTITLE8=Don't Make Me Go
TTITLE9=Home Of The Blues
TTITLE10=Give My Love To Rose
TTITLE11=Rock Island Line
TTITLE12=Ballad Of A Teenage Queen
TTITLE13=Big River
TTITLE14=Guess Things Happen That Way
TTITLE15=Come In Stranger
TTITLE16=The Ways Of A Woman In Love
TTITLE17=You're The Nearest Thing To Heaven
TTITLE18=It's Just About Time
TTITLE19=Luther Played The Boogie
TTITLE20=Thanks A Lot
TTITLE21=Katy Too
TTITLE22=Goodbye Little Darlin'
TTITLE23=Straight A's In Love
TTITLE24=Mean Eyed Cat
EXTD=
EXTT0=
EXTT1=
EXTT2=
EXTT3=
EXTT4=
EXTT5=
EXTT6=
EXTT7=
EXTT8=
EXTT9=
EXTT10=
EXTT11=
EXTT12=
EXTT13=
EXTT14=
EXTT15=
EXTT16=
EXTT17=
EXTT18=
EXTT19=
EXTT20=
EXTT21=
EXTT22=
EXTT23=
EXTT24=
PLAYORDER=
